ffmpeg started on 2025-07-19 at 14:31:35
Report written to "D:\Convert\FFMetrics\reports\ssim_report-6.txt"
Log level: 32
Command line:
ffmpeg -hide_banner -nostdin -i "G:\\\xc0\xed\xe8\xec\xe5\\\xce\xed\xe3\xee\xe8\xed\xe3\xe8\\!_07_\xcb\xe5\xf2\xee_2017\\\xd1\xe5\xec\xfc - \xe2\xe5\xf0\xed\xee, \xf2\xf0\xe8 - \xed\xe5\xe2\xe5\xf0\xed\xee\\[AniDub]_Nana_Maru_San_Batsu_[11]_[720p_x264_Aac]_[MVO]_HEVC.mkv" -i "G:\\\xc0\xed\xe8\xec\xe5\\\xce\xed\xe3\xee\xe8\xed\xe3\xe8\\!_07_\xcb\xe5\xf2\xee_2017\\\xd1\xe5\xec\xfc - \xe2\xe5\xf0\xed\xee, \xf2\xf0\xe8 - \xed\xe5\xe2\xe5\xf0\xed\xee\\[AniDub]_Nana_Maru_San_Batsu_[11]_[720p_x264_Aac]_[MVO].mp4" -lavfi "[0:v]settb=AVTB,setpts=PTS-STARTPTS,format=pix_fmts=yuv420p10,fps=24000/1001,scale=1280:720:flags=bicubic[main];[1:v]settb=AVTB,setpts=PTS-STARTPTS,format=pix_fmts=yuv420p,fps=24000/1001,scale=1280:720:flags=bicubic[ref];[main][ref]ssim=eof_action=endall:stats_file='D\\:/Convert/FFMetrics/logs/ssim_logfile-6.txt'" -f null -
Input #0, matroska,webm, from 'G:\Аниме\Онгоинги\!_07_Лето_2017\Семь - верно, три - неверно\[AniDub]_Nana_Maru_San_Batsu_[11]_[720p_x264_Aac]_[MVO]_HEVC.mkv':
  Metadata:
    COMPATIBLE_BRANDS: isom
    MAJOR_BRAND     : isom
    MINOR_VERSION   : 1
    ENCODER         : Lavf61.7.100
  Duration: 00:23:01.21, start: -0.021000, bitrate: 585 kb/s
  Stream #0:0(eng): Video: hevc (Main 10), yuv420p10le(tv, bt709, progressive), 1280x720 [SAR 1:1 DAR 16:9], 23.98 fps, 23.98 tbr, 1k tbn (default)
      Metadata:
        VENDOR_ID       : [0][0][0][0]
        ENCODER         : Lavc61.19.100 libx265
        BPS             : 388256
        DURATION        : 00:23:00.045708333
        NUMBER_OF_FRAMES: 33086
        NUMBER_OF_BYTES : 66976376
        _STATISTICS_WRITING_APP: mkvpropedit v66.0.0 ('Josie') 64-bit
        _STATISTICS_WRITING_DATE_UTC: 2025-07-19 10:35:29
        _STATISTICS_TAGS: BPS DURATION NUMBER_OF_FRAMES NUMBER_OF_BYTES
  Stream #0:1(eng): Audio: aac (LC), 48000 Hz, stereo, fltp (default)
      Metadata:
        HANDLER_NAME    : GPAC ISO Audio Handler
        VENDOR_ID       : [0][0][0][0]
        ENCODER         : Lavc61.19.100 aac
        BPS             : 193333
        DURATION        : 00:23:01.184000000
        NUMBER_OF_FRAMES: 64744
        NUMBER_OF_BYTES : 33378712
        _STATISTICS_WRITING_APP: mkvpropedit v66.0.0 ('Josie') 64-bit
        _STATISTICS_WRITING_DATE_UTC: 2025-07-19 10:35:29
        _STATISTICS_TAGS: BPS DURATION NUMBER_OF_FRAMES NUMBER_OF_BYTES
[mov,mp4,m4a,3gp,3g2,mj2 @ 0000017021398b40] st: 0 edit list: 2 Missing key frame while searching for timestamp: 0
[mov,mp4,m4a,3gp,3g2,mj2 @ 0000017021398b40] st: 0 edit list 2 Cannot find an index entry before timestamp: 0.
Input #1, mov,mp4,m4a,3gp,3g2,mj2, from 'G:\Аниме\Онгоинги\!_07_Лето_2017\Семь - верно, три - неверно\[AniDub]_Nana_Maru_San_Batsu_[11]_[720p_x264_Aac]_[MVO].mp4':
  Metadata:
    major_brand     : isom
    minor_version   : 1
    compatible_brands: isom
    creation_time   : 2018-05-17T09:22:24.000000Z
    encoder         : Yamb 2.1.0.0 [http://yamb.unite-video.com]
  Duration: 00:23:01.18, start: 0.000000, bitrate: 1955 kb/s
  Stream #1:0[0x1](eng): Video: h264 (High) (avc1 / 0x31637661), yuv420p(progressive), 1280x720 [SAR 1:1 DAR 16:9], 1759 kb/s, 23.97 fps, 23.98 tbr, 25k tbn (default)
      Metadata:
        creation_time   : 2018-05-17T21:35:48.000000Z
        vendor_id       : [0][0][0][0]
  Stream #1:1[0x2](eng): Audio: aac (LC) (mp4a / 0x6134706D), 48000 Hz, stereo, fltp, 192 kb/s (default)
      Metadata:
        creation_time   : 2018-05-17T09:22:30.000000Z
        handler_name    : GPAC ISO Audio Handler
        vendor_id       : [0][0][0][0]
Stream mapping:
  Stream #0:0 (hevc) -> settb:default
  Stream #1:0 (h264) -> settb:default
  ssim:default -> Stream #0:0 (wrapped_avframe)
  Stream #0:1 -> #0:1 (aac (native) -> pcm_s16le (native))
[swscaler @ 000001702dbe57c0] No accelerated colorspace conversion found from yuv420p to bgr48le.
[swscaler @ 000001702dd8b280] No accelerated colorspace conversion found from yuv420p to bgr48le.
[swscaler @ 000001702de9dd40] No accelerated colorspace conversion found from yuv420p to bgr48le.
[swscaler @ 000001702e074d40] No accelerated colorspace conversion found from yuv420p to bgr48le.
[swscaler @ 000001702e15ed80] No accelerated colorspace conversion found from yuv420p to bgr48le.
[swscaler @ 000001702e2af040] No accelerated colorspace conversion found from yuv420p to bgr48le.
[swscaler @ 000001702e2e9040] No accelerated colorspace conversion found from yuv420p to bgr48le.
[swscaler @ 000001702e353cc0] No accelerated colorspace conversion found from yuv420p to bgr48le.
[swscaler @ 000001702e3af040] No accelerated colorspace conversion found from yuv420p to bgr48le.
[swscaler @ 000001702e432040] No accelerated colorspace conversion found from yuv420p to bgr48le.
[swscaler @ 000001702e49a040] No accelerated colorspace conversion found from yuv420p to bgr48le.
[swscaler @ 00000170325400c0] No accelerated colorspace conversion found from yuv420p to bgr48le.
[swscaler @ 00000170325a3040] No accelerated colorspace conversion found from yuv420p to bgr48le.
[swscaler @ 000001703261e040] No accelerated colorspace conversion found from yuv420p to bgr48le.
[swscaler @ 0000017032688040] No accelerated colorspace conversion found from yuv420p to bgr48le.
[swscaler @ 00000170326f7040] No accelerated colorspace conversion found from yuv420p to bgr48le.
Output #0, null, to 'pipe:':
  Metadata:
    COMPATIBLE_BRANDS: isom
    MAJOR_BRAND     : isom
    MINOR_VERSION   : 1
    encoder         : Lavf61.7.100
  Stream #0:0: Video: wrapped_avframe, yuv420p10le(tv, bt709, progressive), 1280x720 [SAR 1:1 DAR 16:9], q=2-31, 200 kb/s, 23.98 fps, 23.98 tbn
      Metadata:
        encoder         : Lavc61.19.100 wrapped_avframe
  Stream #0:1(eng): Audio: pcm_s16le, 48000 Hz, stereo, s16, 1536 kb/s (default)
      Metadata:
        HANDLER_NAME    : GPAC ISO Audio Handler
        VENDOR_ID       : [0][0][0][0]
        _STATISTICS_TAGS: BPS DURATION NUMBER_OF_FRAMES NUMBER_OF_BYTES
        BPS             : 193333
        DURATION        : 00:23:01.184000000
        NUMBER_OF_FRAMES: 64744
        NUMBER_OF_BYTES : 33378712
        _STATISTICS_WRITING_APP: mkvpropedit v66.0.0 ('Josie') 64-bit
        _STATISTICS_WRITING_DATE_UTC: 2025-07-19 10:35:29
        encoder         : Lavc61.19.100 pcm_s16le
frame=   83 fps=0.0 q=-0.0 size=N/A time=00:00:03.46 bitrate=N/A speed=6.74x    frame=  181 fps=175 q=-0.0 size=N/A time=00:00:07.54 bitrate=N/A speed=7.28x    frame=  283 fps=181 q=-0.0 size=N/A time=00:00:11.80 bitrate=N/A speed=7.56x    frame=  379 fps=182 q=-0.0 size=N/A time=00:00:15.80 bitrate=N/A speed=7.59x    frame=  484 fps=187 q=-0.0 size=N/A time=00:00:20.18 bitrate=N/A speed=7.79x    frame=  576 fps=185 q=-0.0 size=N/A time=00:00:24.02 bitrate=N/A speed=7.72x    frame=  683 fps=189 q=-0.0 size=N/A time=00:00:28.48 bitrate=N/A speed=7.87x    frame=  781 fps=188 q=-0.0 size=N/A time=00:00:32.57 bitrate=N/A speed=7.86x    frame=  880 fps=189 q=-0.0 size=N/A time=00:00:36.70 bitrate=N/A speed=7.89x    frame=  970 fps=187 q=-0.0 size=N/A time=00:00:40.45 bitrate=N/A speed=7.82x    frame= 1082 fps=190 q=-0.0 size=N/A time=00:00:45.12 bitrate=N/A speed=7.94x    frame= 1181 fps=190 q=-0.0 size=N/A time=00:00:49.25 bitrate=N/A speed=7.94x    frame= 1282 fps=191 q=-0.0 size=N/A time=00:00:53.47 bitrate=N/A speed=7.97x    frame= 1381 fps=191 q=-0.0 size=N/A time=00:00:57.59 bitrate=N/A speed=7.96x    frame= 1479 fps=191 q=-0.0 size=N/A time=00:01:01.68 bitrate=N/A speed=7.97x    frame= 1578 fps=191 q=-0.0 size=N/A time=00:01:05.81 bitrate=N/A speed=7.96x    frame= 1680 fps=191 q=-0.0 size=N/A time=00:01:10.07 bitrate=N/A speed=7.98x    frame= 1775 fps=191 q=-0.0 size=N/A time=00:01:14.03 bitrate=N/A speed=7.97x    frame= 1874 fps=191 q=-0.0 size=N/A time=00:01:18.16 bitrate=N/A speed=7.96x    frame= 1969 fps=191 q=-0.0 size=N/A time=00:01:22.12 bitrate=N/A speed=7.96x    frame= 2068 fps=191 q=-0.0 size=N/A time=00:01:26.25 bitrate=N/A speed=7.95x    frame= 2160 fps=190 q=-0.0 size=N/A time=00:01:30.09 bitrate=N/A speed=7.93x    frame= 2266 fps=191 q=-0.0 size=N/A time=00:01:34.51 bitrate=N/A speed=7.96x    frame= 2363 fps=191 q=-0.0 size=N/A time=00:01:38.55 bitrate=N/A speed=7.96x    frame= 2463 fps=191 q=-0.0 size=N/A time=00:01:42.72 bitrate=N/A speed=7.96x    frame= 2560 fps=191 q=-0.0 size=N/A time=00:01:46.77 bitrate=N/A speed=7.95x    frame= 2656 fps=191 q=-0.0 size=N/A time=00:01:50.77 bitrate=N/A speed=7.95x    frame= 2751 fps=190 q=-0.0 size=N/A time=00:01:54.73 bitrate=N/A speed=7.94x    frame= 2839 fps=190 q=-0.0 size=N/A time=00:01:58.40 bitrate=N/A speed=7.91x    frame= 2954 fps=191 q=-0.0 size=N/A time=00:02:03.20 bitrate=N/A speed=7.96x    frame= 3049 fps=191 q=-0.0 size=N/A time=00:02:07.16 bitrate=N/A speed=7.95x    frame= 3148 fps=191 q=-0.0 size=N/A time=00:02:11.29 bitrate=N/A speed=7.95x    frame= 3238 fps=190 q=-0.0 size=N/A time=00:02:15.05 bitrate=N/A speed=7.93x    frame= 3337 fps=190 q=-0.0 size=N/A time=00:02:19.18 bitrate=N/A speed=7.93x    frame= 3428 fps=190 q=-0.0 size=N/A time=00:02:22.97 bitrate=N/A speed=7.92x    frame= 3529 fps=190 q=-0.0 size=N/A time=00:02:27.18 bitrate=N/A speed=7.92x    frame= 3623 fps=190 q=-0.0 size=N/A time=00:02:31.10 bitrate=N/A speed=7.91x    frame= 3721 fps=190 q=-0.0 size=N/A time=00:02:35.19 bitrate=N/A speed=7.91x    frame= 3815 fps=190 q=-0.0 size=N/A time=00:02:39.11 bitrate=N/A speed=7.91x    frame= 3903 fps=189 q=-0.0 size=N/A time=00:02:42.78 bitrate=N/A speed=7.89x    frame= 4015 fps=190 q=-0.0 size=N/A time=00:02:47.45 bitrate=N/A speed=7.92x    frame= 4120 fps=190 q=-0.0 size=N/A time=00:02:51.83 bitrate=N/A speed=7.93x    frame= 4218 fps=190 q=-0.0 size=N/A time=00:02:55.92 bitrate=N/A speed=7.93x    frame= 4311 fps=190 q=-0.0 size=N/A time=00:02:59.80 bitrate=N/A speed=7.92x    frame= 4417 fps=190 q=-0.0 size=N/A time=00:03:04.22 bitrate=N/A speed=7.94x    frame= 4519 fps=190 q=-0.0 size=N/A time=00:03:08.47 bitrate=N/A speed=7.94x    frame= 4618 fps=191 q=-0.0 size=N/A time=00:03:12.60 bitrate=N/A speed=7.95x    frame= 4723 fps=191 q=-0.0 size=N/A time=00:03:16.98 bitrate=N/A speed=7.95x    frame= 4810 fps=190 q=-0.0 size=N/A time=00:03:20.61 bitrate=N/A speed=7.93x    frame= 4923 fps=191 q=-0.0 size=N/A time=00:03:25.33 bitrate=N/A speed=7.96x    frame= 5023 fps=191 q=-0.0 size=N/A time=00:03:29.50 bitrate=N/A speed=7.96x    frame= 5121 fps=191 q=-0.0 size=N/A time=00:03:33.58 bitrate=N/A speed=7.96x    frame= 5221 fps=191 q=-0.0 size=N/A time=00:03:37.75 bitrate=N/A speed=7.96x    frame= 5319 fps=191 q=-0.0 size=N/A time=00:03:41.84 bitrate=N/A speed=7.96x    frame= 5419 fps=191 q=-0.0 size=N/A time=00:03:46.01 bitrate=N/A speed=7.97x    frame= 5518 fps=191 q=-0.0 size=N/A time=00:03:50.14 bitrate=N/A speed=7.96x    frame= 5611 fps=191 q=-0.0 size=N/A time=00:03:54.02 bitrate=N/A speed=7.96x    frame= 5718 fps=191 q=-0.0 size=N/A time=00:03:58.48 bitrate=N/A speed=7.97x    frame= 5819 fps=191 q=-0.0 size=N/A time=00:04:02.70 bitrate=N/A speed=7.98x    frame= 5922 fps=191 q=-0.0 size=N/A time=00:04:06.99 bitrate=N/A speed=7.98x    frame= 6018 fps=191 q=-0.0 size=N/A time=00:04:11.00 bitrate=N/A speed=7.98x    frame= 6124 fps=191 q=-0.0 size=N/A time=00:04:15.42 bitrate=N/A speed=7.98x    frame= 6222 fps=191 q=-0.0 size=N/A time=00:04:19.50 bitrate=N/A speed=7.99x    frame= 6328 fps=192 q=-0.0 size=N/A time=00:04:23.93 bitrate=N/A speed=7.99x    frame= 6427 fps=192 q=-0.0 size=N/A time=00:04:28.05 bitrate=N/A speed=   8x    frame= 6519 fps=191 q=-0.0 size=N/A time=00:04:31.89 bitrate=N/A speed=7.99x    frame= 6629 fps=192 q=-0.0 size=N/A time=00:04:36.48 bitrate=N/A speed=   8x    frame= 6727 fps=192 q=-0.0 size=N/A time=00:04:40.57 bitrate=N/A speed=   8x    frame= 6834 fps=192 q=-0.0 size=N/A time=00:04:45.03 bitrate=N/A speed=8.01x    frame= 6936 fps=192 q=-0.0 size=N/A time=00:04:49.28 bitrate=N/A speed=8.01x    frame= 7031 fps=192 q=-0.0 size=N/A time=00:04:53.25 bitrate=N/A speed=8.01x    frame= 7141 fps=192 q=-0.0 size=N/A time=00:04:57.83 bitrate=N/A speed=8.02x    frame= 7241 fps=192 q=-0.0 size=N/A time=00:05:02.01 bitrate=N/A speed=8.02x    frame= 7343 fps=192 q=-0.0 size=N/A time=00:05:06.26 bitrate=N/A speed=8.02x    frame= 7441 fps=192 q=-0.0 size=N/A time=00:05:10.35 bitrate=N/A speed=8.02x    frame= 7545 fps=192 q=-0.0 size=N/A time=00:05:14.68 bitrate=N/A speed=8.03x    frame= 7646 fps=192 q=-0.0 size=N/A time=00:05:18.90 bitrate=N/A speed=8.03x    frame= 7738 fps=192 q=-0.0 size=N/A time=00:05:22.73 bitrate=N/A speed=8.02x    frame= 7847 fps=193 q=-0.0 size=N/A time=00:05:27.28 bitrate=N/A speed=8.03x    frame= 7946 fps=193 q=-0.0 size=N/A time=00:05:31.41 bitrate=N/A speed=8.03x    frame= 8049 fps=193 q=-0.0 size=N/A time=00:05:35.71 bitrate=N/A speed=8.03x    frame= 8147 fps=193 q=-0.0 size=N/A time=00:05:39.79 bitrate=N/A speed=8.03x    frame= 8247 fps=193 q=-0.0 size=N/A time=00:05:43.96 bitrate=N/A speed=8.03x    frame= 8346 fps=193 q=-0.0 size=N/A time=00:05:48.09 bitrate=N/A speed=8.03x    frame= 8446 fps=193 q=-0.0 size=N/A time=00:05:52.26 bitrate=N/A speed=8.03x    frame= 8539 fps=193 q=-0.0 size=N/A time=00:05:56.14 bitrate=N/A speed=8.03x    frame= 8642 fps=193 q=-0.0 size=N/A time=00:06:00.44 bitrate=N/A speed=8.03x    frame= 8751 fps=193 q=-0.0 size=N/A time=00:06:04.98 bitrate=N/A speed=8.04x    frame= 8849 fps=193 q=-0.0 size=N/A time=00:06:09.07 bitrate=N/A speed=8.04x    frame= 8949 fps=193 q=-0.0 size=N/A time=00:06:13.24 bitrate=N/A speed=8.04x    frame= 9043 fps=193 q=-0.0 size=N/A time=00:06:17.16 bitrate=N/A speed=8.04x    frame= 9148 fps=193 q=-0.0 size=N/A time=00:06:21.54 bitrate=N/A speed=8.04x    frame= 9245 fps=193 q=-0.0 size=N/A time=00:06:25.59 bitrate=N/A speed=8.04x    frame= 9344 fps=193 q=-0.0 size=N/A time=00:06:29.72 bitrate=N/A speed=8.04x    frame= 9442 fps=193 q=-0.0 size=N/A time=00:06:33.81 bitrate=N/A speed=8.04x    frame= 9544 fps=193 q=-0.0 size=N/A time=00:06:38.06 bitrate=N/A speed=8.04x    frame= 9645 fps=193 q=-0.0 size=N/A time=00:06:42.27 bitrate=N/A speed=8.04x    frame= 9745 fps=193 q=-0.0 size=N/A time=00:06:46.44 bitrate=N/A speed=8.04x    frame= 9844 fps=193 q=-0.0 size=N/A time=00:06:50.57 bitrate=N/A speed=8.04x    frame= 9946 fps=193 q=-0.0 size=N/A time=00:06:54.83 bitrate=N/A speed=8.04x    frame=10039 fps=193 q=-0.0 size=N/A time=00:06:58.70 bitrate=N/A speed=8.04x    frame=10146 fps=193 q=-0.0 size=N/A time=00:07:03.17 bitrate=N/A speed=8.04x    frame=10242 fps=193 q=-0.0 size=N/A time=00:07:07.17 bitrate=N/A speed=8.04x    frame=10339 fps=193 q=-0.0 size=N/A time=00:07:11.22 bitrate=N/A speed=8.04x    frame=10436 fps=193 q=-0.0 size=N/A time=00:07:15.26 bitrate=N/A speed=8.04x    frame=10531 fps=193 q=-0.0 size=N/A time=00:07:19.23 bitrate=N/A speed=8.04x    frame=10630 fps=193 q=-0.0 size=N/A time=00:07:23.35 bitrate=N/A speed=8.03x    frame=10727 fps=193 q=-0.0 size=N/A time=00:07:27.40 bitrate=N/A speed=8.03x    frame=10820 fps=192 q=-0.0 size=N/A time=00:07:31.28 bitrate=N/A speed=8.03x    frame=10923 fps=193 q=-0.0 size=N/A time=00:07:35.58 bitrate=N/A speed=8.03x    frame=11015 fps=192 q=-0.0 size=N/A time=00:07:39.41 bitrate=N/A speed=8.03x    frame=11112 fps=192 q=-0.0 size=N/A time=00:07:43.46 bitrate=N/A speed=8.02x    frame=11205 fps=192 q=-0.0 size=N/A time=00:07:47.34 bitrate=N/A speed=8.02x    frame=11303 fps=192 q=-0.0 size=N/A time=00:07:51.42 bitrate=N/A speed=8.02x    frame=11398 fps=192 q=-0.0 size=N/A time=00:07:55.39 bitrate=N/A speed=8.02x    frame=11494 fps=192 q=-0.0 size=N/A time=00:07:59.39 bitrate=N/A speed=8.01x    frame=11595 fps=192 q=-0.0 size=N/A time=00:08:03.60 bitrate=N/A speed=8.01x    frame=11692 fps=192 q=-0.0 size=N/A time=00:08:07.65 bitrate=N/A speed=8.01x    frame=11782 fps=192 q=-0.0 size=N/A time=00:08:11.40 bitrate=N/A speed=8.01x    frame=11886 fps=192 q=-0.0 size=N/A time=00:08:15.74 bitrate=N/A speed=8.01x    frame=11983 fps=192 q=-0.0 size=N/A time=00:08:19.79 bitrate=N/A speed=8.01x    frame=12081 fps=192 q=-0.0 size=N/A time=00:08:23.87 bitrate=N/A speed=8.01x    frame=12179 fps=192 q=-0.0 size=N/A time=00:08:27.96 bitrate=N/A speed=8.01x    frame=12278 fps=192 q=-0.0 size=N/A time=00:08:32.09 bitrate=N/A speed=8.01x    frame=12368 fps=192 q=-0.0 size=N/A time=00:08:35.84 bitrate=N/A speed=   8x    frame=12473 fps=192 q=-0.0 size=N/A time=00:08:40.22 bitrate=N/A speed=   8x    frame=12566 fps=192 q=-0.0 size=N/A time=00:08:44.10 bitrate=N/A speed=   8x    frame=12664 fps=192 q=-0.0 size=N/A time=00:08:48.19 bitrate=N/A speed=   8x    frame=12758 fps=192 q=-0.0 size=N/A time=00:08:52.11 bitrate=N/A speed=   8x    frame=12865 fps=192 q=-0.0 size=N/A time=00:08:56.57 bitrate=N/A speed=   8x    frame=12948 fps=192 q=-0.0 size=N/A time=00:09:00.03 bitrate=N/A speed=7.99x    frame=13060 fps=192 q=-0.0 size=N/A time=00:09:04.71 bitrate=N/A speed=   8x    frame=13156 fps=192 q=-0.0 size=N/A time=00:09:08.71 bitrate=N/A speed=   8x    frame=13254 fps=192 q=-0.0 size=N/A time=00:09:12.80 bitrate=N/A speed=   8x    frame=13347 fps=192 q=-0.0 size=N/A time=00:09:16.68 bitrate=N/A speed=7.99x    frame=13445 fps=192 q=-0.0 size=N/A time=00:09:20.76 bitrate=N/A speed=7.99x    frame=13537 fps=192 q=-0.0 size=N/A time=00:09:24.60 bitrate=N/A speed=7.99x    frame=13637 fps=192 q=-0.0 size=N/A time=00:09:28.77 bitrate=N/A speed=7.99x    frame=13732 fps=192 q=-0.0 size=N/A time=00:09:32.73 bitrate=N/A speed=7.99x    frame=13816 fps=191 q=-0.0 size=N/A time=00:09:36.24 bitrate=N/A speed=7.98x    frame=13926 fps=191 q=-0.0 size=N/A time=00:09:40.83 bitrate=N/A speed=7.99x    frame=14021 fps=191 q=-0.0 size=N/A time=00:09:44.79 bitrate=N/A speed=7.98x    frame=14121 fps=191 q=-0.0 size=N/A time=00:09:48.96 bitrate=N/A speed=7.98x    frame=14210 fps=191 q=-0.0 size=N/A time=00:09:52.67 bitrate=N/A speed=7.98x    frame=14316 fps=191 q=-0.0 size=N/A time=00:09:57.09 bitrate=N/A speed=7.98x    frame=14414 fps=191 q=-0.0 size=N/A time=00:10:01.18 bitrate=N/A speed=7.98x    frame=14511 fps=191 q=-0.0 size=N/A time=00:10:05.22 bitrate=N/A speed=7.98x    frame=14612 fps=191 q=-0.0 size=N/A time=00:10:09.44 bitrate=N/A speed=7.98x    frame=14713 fps=191 q=-0.0 size=N/A time=00:10:13.65 bitrate=N/A speed=7.98x    frame=14809 fps=191 q=-0.0 size=N/A time=00:10:17.65 bitrate=N/A speed=7.98x    frame=14909 fps=191 q=-0.0 size=N/A time=00:10:21.82 bitrate=N/A speed=7.98x    frame=14995 fps=191 q=-0.0 size=N/A time=00:10:25.41 bitrate=N/A speed=7.98x    frame=15104 fps=191 q=-0.0 size=N/A time=00:10:29.96 bitrate=N/A speed=7.98x    frame=15201 fps=191 q=-0.0 size=N/A time=00:10:34.00 bitrate=N/A speed=7.98x    frame=15298 fps=191 q=-0.0 size=N/A time=00:10:38.05 bitrate=N/A speed=7.98x    frame=15395 fps=191 q=-0.0 size=N/A time=00:10:42.09 bitrate=N/A speed=7.98x    frame=15492 fps=191 q=-0.0 size=N/A time=00:10:46.14 bitrate=N/A speed=7.98x    frame=15590 fps=191 q=-0.0 size=N/A time=00:10:50.23 bitrate=N/A speed=7.98x    frame=15684 fps=191 q=-0.0 size=N/A time=00:10:54.15 bitrate=N/A speed=7.97x    frame=15787 fps=191 q=-0.0 size=N/A time=00:10:58.44 bitrate=N/A speed=7.98x    frame=15880 fps=191 q=-0.0 size=N/A time=00:11:02.32 bitrate=N/A speed=7.97x    frame=15979 fps=191 q=-0.0 size=N/A time=00:11:06.45 bitrate=N/A speed=7.97x    frame=16088 fps=191 q=-0.0 size=N/A time=00:11:11.00 bitrate=N/A speed=7.98x    frame=16186 fps=191 q=-0.0 size=N/A time=00:11:15.09 bitrate=N/A speed=7.98x    frame=16283 fps=191 q=-0.0 size=N/A time=00:11:19.13 bitrate=N/A speed=7.98x    frame=16388 fps=191 q=-0.0 size=N/A time=00:11:23.51 bitrate=N/A speed=7.98x    frame=16488 fps=191 q=-0.0 size=N/A time=00:11:27.68 bitrate=N/A speed=7.98x    frame=16574 fps=191 q=-0.0 size=N/A time=00:11:31.27 bitrate=N/A speed=7.98x    frame=16685 fps=191 q=-0.0 size=N/A time=00:11:35.90 bitrate=N/A speed=7.98x    frame=16784 fps=191 q=-0.0 size=N/A time=00:11:40.03 bitrate=N/A speed=7.98x    frame=16869 fps=191 q=-0.0 size=N/A time=00:11:43.57 bitrate=N/A speed=7.98x    frame=16973 fps=191 q=-0.0 size=N/A time=00:11:47.91 bitrate=N/A speed=7.98x    frame=17066 fps=191 q=-0.0 size=N/A time=00:11:51.79 bitrate=N/A speed=7.98x    frame=17166 fps=191 q=-0.0 size=N/A time=00:11:55.96 bitrate=N/A speed=7.98x    frame=17255 fps=191 q=-0.0 size=N/A time=00:11:59.67 bitrate=N/A speed=7.97x    frame=17362 fps=191 q=-0.0 size=N/A time=00:12:04.14 bitrate=N/A speed=7.98x    frame=17453 fps=191 q=-0.0 size=N/A time=00:12:07.93 bitrate=N/A speed=7.97x    frame=17553 fps=191 q=-0.0 size=N/A time=00:12:12.10 bitrate=N/A speed=7.97x    frame=17651 fps=191 q=-0.0 size=N/A time=00:12:16.19 bitrate=N/A speed=7.97x    frame=17747 fps=191 q=-0.0 size=N/A time=00:12:20.19 bitrate=N/A speed=7.97x    frame=17845 fps=191 q=-0.0 size=N/A time=00:12:24.28 bitrate=N/A speed=7.97x    frame=17940 fps=191 q=-0.0 size=N/A time=00:12:28.24 bitrate=N/A speed=7.97x    frame=18035 fps=191 q=-0.0 size=N/A time=00:12:32.20 bitrate=N/A speed=7.97x    frame=18124 fps=191 q=-0.0 size=N/A time=00:12:35.92 bitrate=N/A speed=7.96x    frame=18209 fps=191 q=-0.0 size=N/A time=00:12:39.46 bitrate=N/A speed=7.96x    frame=18310 fps=191 q=-0.0 size=N/A time=00:12:43.67 bitrate=N/A speed=7.96x    frame=18398 fps=191 q=-0.0 size=N/A time=00:12:47.34 bitrate=N/A speed=7.95x    frame=18487 fps=191 q=-0.0 size=N/A time=00:12:51.06 bitrate=N/A speed=7.95x    frame=18583 fps=191 q=-0.0 size=N/A time=00:12:55.06 bitrate=N/A speed=7.95x    frame=18673 fps=191 q=-0.0 size=N/A time=00:12:58.81 bitrate=N/A speed=7.95x    frame=18765 fps=190 q=-0.0 size=N/A time=00:13:02.65 bitrate=N/A speed=7.94x    frame=18858 fps=190 q=-0.0 size=N/A time=00:13:06.53 bitrate=N/A speed=7.94x    frame=18953 fps=190 q=-0.0 size=N/A time=00:13:10.49 bitrate=N/A speed=7.94x    frame=19046 fps=190 q=-0.0 size=N/A time=00:13:14.37 bitrate=N/A speed=7.94x    frame=19146 fps=190 q=-0.0 size=N/A time=00:13:18.54 bitrate=N/A speed=7.94x    frame=19245 fps=190 q=-0.0 size=N/A time=00:13:22.67 bitrate=N/A speed=7.94x    frame=19341 fps=190 q=-0.0 size=N/A time=00:13:26.68 bitrate=N/A speed=7.94x    frame=19436 fps=190 q=-0.0 size=N/A time=00:13:30.64 bitrate=N/A speed=7.93x    frame=19530 fps=190 q=-0.0 size=N/A time=00:13:34.56 bitrate=N/A speed=7.93x    frame=19634 fps=190 q=-0.0 size=N/A time=00:13:38.90 bitrate=N/A speed=7.93x    frame=19726 fps=190 q=-0.0 size=N/A time=00:13:42.73 bitrate=N/A speed=7.93x    frame=19822 fps=190 q=-0.0 size=N/A time=00:13:46.74 bitrate=N/A speed=7.93x    frame=19930 fps=190 q=-0.0 size=N/A time=00:13:51.24 bitrate=N/A speed=7.94x    frame=20031 fps=190 q=-0.0 size=N/A time=00:13:55.45 bitrate=N/A speed=7.94x    frame=20126 fps=190 q=-0.0 size=N/A time=00:13:59.42 bitrate=N/A speed=7.94x    frame=20230 fps=190 q=-0.0 size=N/A time=00:14:03.75 bitrate=N/A speed=7.94x    frame=20331 fps=190 q=-0.0 size=N/A time=00:14:07.97 bitrate=N/A speed=7.94x    frame=20431 fps=190 q=-0.0 size=N/A time=00:14:12.14 bitrate=N/A speed=7.94x    frame=20530 fps=190 q=-0.0 size=N/A time=00:14:16.27 bitrate=N/A speed=7.94x    frame=20628 fps=190 q=-0.0 size=N/A time=00:14:20.35 bitrate=N/A speed=7.94x    frame=20731 fps=190 q=-0.0 size=N/A time=00:14:24.65 bitrate=N/A speed=7.94x    frame=20821 fps=190 q=-0.0 size=N/A time=00:14:28.40 bitrate=N/A speed=7.94x    frame=20927 fps=190 q=-0.0 size=N/A time=00:14:32.83 bitrate=N/A speed=7.94x    frame=21024 fps=190 q=-0.0 size=N/A time=00:14:36.87 bitrate=N/A speed=7.94x    frame=21126 fps=190 q=-0.0 size=N/A time=00:14:41.13 bitrate=N/A speed=7.94x    frame=21221 fps=190 q=-0.0 size=N/A time=00:14:45.09 bitrate=N/A speed=7.94x    frame=21321 fps=190 q=-0.0 size=N/A time=00:14:49.26 bitrate=N/A speed=7.94x    frame=21415 fps=190 q=-0.0 size=N/A time=00:14:53.18 bitrate=N/A speed=7.94x    frame=21521 fps=190 q=-0.0 size=N/A time=00:14:57.60 bitrate=N/A speed=7.94x    frame=21611 fps=190 q=-0.0 size=N/A time=00:15:01.35 bitrate=N/A speed=7.94x    frame=21720 fps=190 q=-0.0 size=N/A time=00:15:05.90 bitrate=N/A speed=7.94x    frame=21815 fps=190 q=-0.0 size=N/A time=00:15:09.86 bitrate=N/A speed=7.94x    frame=21918 fps=190 q=-0.0 size=N/A time=00:15:14.16 bitrate=N/A speed=7.94x    frame=22017 fps=190 q=-0.0 size=N/A time=00:15:18.29 bitrate=N/A speed=7.95x    frame=22109 fps=190 q=-0.0 size=N/A time=00:15:22.12 bitrate=N/A speed=7.94x    frame=22208 fps=190 q=-0.0 size=N/A time=00:15:26.25 bitrate=N/A speed=7.94x    frame=22301 fps=190 q=-0.0 size=N/A time=00:15:30.13 bitrate=N/A speed=7.94x    frame=22394 fps=190 q=-0.0 size=N/A time=00:15:34.01 bitrate=N/A speed=7.94x    frame=22486 fps=190 q=-0.0 size=N/A time=00:15:37.85 bitrate=N/A speed=7.94x    frame=22580 fps=190 q=-0.0 size=N/A time=00:15:41.77 bitrate=N/A speed=7.94x    frame=22667 fps=190 q=-0.0 size=N/A time=00:15:45.40 bitrate=N/A speed=7.93x    frame=22776 fps=190 q=-0.0 size=N/A time=00:15:49.94 bitrate=N/A speed=7.94x    frame=22871 fps=190 q=-0.0 size=N/A time=00:15:53.91 bitrate=N/A speed=7.93x    frame=22964 fps=190 q=-0.0 size=N/A time=00:15:57.79 bitrate=N/A speed=7.93x    frame=23063 fps=190 q=-0.0 size=N/A time=00:16:01.91 bitrate=N/A speed=7.93x    frame=23153 fps=190 q=-0.0 size=N/A time=00:16:05.67 bitrate=N/A speed=7.93x    frame=23261 fps=190 q=-0.0 size=N/A time=00:16:10.17 bitrate=N/A speed=7.93x    frame=23351 fps=190 q=-0.0 size=N/A time=00:16:13.93 bitrate=N/A speed=7.93x    frame=23453 fps=190 q=-0.0 size=N/A time=00:16:18.18 bitrate=N/A speed=7.93x    frame=23550 fps=190 q=-0.0 size=N/A time=00:16:22.23 bitrate=N/A speed=7.93x    frame=23644 fps=190 q=-0.0 size=N/A time=00:16:26.15 bitrate=N/A speed=7.93x    frame=23741 fps=190 q=-0.0 size=N/A time=00:16:30.19 bitrate=N/A speed=7.93x    frame=23843 fps=190 q=-0.0 size=N/A time=00:16:34.45 bitrate=N/A speed=7.93x    frame=23935 fps=190 q=-0.0 size=N/A time=00:16:38.28 bitrate=N/A speed=7.93x    frame=24044 fps=190 q=-0.0 size=N/A time=00:16:42.83 bitrate=N/A speed=7.93x    frame=24145 fps=190 q=-0.0 size=N/A time=00:16:47.04 bitrate=N/A speed=7.93x    frame=24242 fps=190 q=-0.0 size=N/A time=00:16:51.09 bitrate=N/A speed=7.93x    frame=24343 fps=190 q=-0.0 size=N/A time=00:16:55.30 bitrate=N/A speed=7.93x    frame=24438 fps=190 q=-0.0 size=N/A time=00:16:59.26 bitrate=N/A speed=7.93x    frame=24535 fps=190 q=-0.0 size=N/A time=00:17:03.31 bitrate=N/A speed=7.93x    frame=24630 fps=190 q=-0.0 size=N/A time=00:17:07.27 bitrate=N/A speed=7.93x    frame=24731 fps=190 q=-0.0 size=N/A time=00:17:11.48 bitrate=N/A speed=7.93x    frame=24828 fps=190 q=-0.0 size=N/A time=00:17:15.53 bitrate=N/A speed=7.93x    frame=24925 fps=190 q=-0.0 size=N/A time=00:17:19.58 bitrate=N/A speed=7.93x    frame=25021 fps=190 q=-0.0 size=N/A time=00:17:23.58 bitrate=N/A speed=7.93x    frame=25117 fps=190 q=-0.0 size=N/A time=00:17:27.58 bitrate=N/A speed=7.93x    frame=25213 fps=190 q=-0.0 size=N/A time=00:17:31.59 bitrate=N/A speed=7.93x    frame=25306 fps=190 q=-0.0 size=N/A time=00:17:35.47 bitrate=N/A speed=7.93x    frame=25396 fps=190 q=-0.0 size=N/A time=00:17:39.22 bitrate=N/A speed=7.93x    frame=25486 fps=190 q=-0.0 size=N/A time=00:17:42.97 bitrate=N/A speed=7.92x    frame=25577 fps=190 q=-0.0 size=N/A time=00:17:46.77 bitrate=N/A speed=7.92x    frame=25668 fps=190 q=-0.0 size=N/A time=00:17:50.56 bitrate=N/A speed=7.92x    frame=25764 fps=190 q=-0.0 size=N/A time=00:17:54.57 bitrate=N/A speed=7.92x    frame=25857 fps=190 q=-0.0 size=N/A time=00:17:58.45 bitrate=N/A speed=7.92x    frame=25965 fps=190 q=-0.0 size=N/A time=00:18:02.95 bitrate=N/A speed=7.92x    frame=26066 fps=190 q=-0.0 size=N/A time=00:18:07.16 bitrate=N/A speed=7.92x    frame=26165 fps=190 q=-0.0 size=N/A time=00:18:11.29 bitrate=N/A speed=7.92x    frame=26268 fps=190 q=-0.0 size=N/A time=00:18:15.59 bitrate=N/A speed=7.92x    frame=26365 fps=190 q=-0.0 size=N/A time=00:18:19.64 bitrate=N/A speed=7.92x    frame=26468 fps=190 q=-0.0 size=N/A time=00:18:23.93 bitrate=N/A speed=7.92x    frame=26571 fps=190 q=-0.0 size=N/A time=00:18:28.23 bitrate=N/A speed=7.92x    frame=26672 fps=190 q=-0.0 size=N/A time=00:18:32.44 bitrate=N/A speed=7.93x    frame=26772 fps=190 q=-0.0 size=N/A time=00:18:36.61 bitrate=N/A speed=7.93x    frame=26875 fps=190 q=-0.0 size=N/A time=00:18:40.91 bitrate=N/A speed=7.93x    frame=26976 fps=190 q=-0.0 size=N/A time=00:18:45.12 bitrate=N/A speed=7.93x    frame=27079 fps=190 q=-0.0 size=N/A time=00:18:49.41 bitrate=N/A speed=7.93x    frame=27180 fps=190 q=-0.0 size=N/A time=00:18:53.63 bitrate=N/A speed=7.93x    frame=27265 fps=190 q=-0.0 size=N/A time=00:18:57.17 bitrate=N/A speed=7.93x    frame=27366 fps=190 q=-0.0 size=N/A time=00:19:01.39 bitrate=N/A speed=7.93x    frame=27473 fps=190 q=-0.0 size=N/A time=00:19:05.85 bitrate=N/A speed=7.93x    frame=27567 fps=190 q=-0.0 size=N/A time=00:19:09.77 bitrate=N/A speed=7.93x    frame=27668 fps=190 q=-0.0 size=N/A time=00:19:13.98 bitrate=N/A speed=7.93x    frame=27764 fps=190 q=-0.0 size=N/A time=00:19:17.99 bitrate=N/A speed=7.93x    frame=27867 fps=190 q=-0.0 size=N/A time=00:19:22.28 bitrate=N/A speed=7.93x    frame=27967 fps=190 q=-0.0 size=N/A time=00:19:26.45 bitrate=N/A speed=7.93x    frame=28071 fps=190 q=-0.0 size=N/A time=00:19:30.79 bitrate=N/A speed=7.93x    frame=28171 fps=190 q=-0.0 size=N/A time=00:19:34.96 bitrate=N/A speed=7.93x    frame=28270 fps=190 q=-0.0 size=N/A time=00:19:39.09 bitrate=N/A speed=7.93x    frame=28365 fps=190 q=-0.0 size=N/A time=00:19:43.05 bitrate=N/A speed=7.93x    frame=28468 fps=190 q=-0.0 size=N/A time=00:19:47.35 bitrate=N/A speed=7.93x    frame=28560 fps=190 q=-0.0 size=N/A time=00:19:51.19 bitrate=N/A speed=7.93x    frame=28656 fps=190 q=-0.0 size=N/A time=00:19:55.19 bitrate=N/A speed=7.93x    frame=28747 fps=190 q=-0.0 size=N/A time=00:19:58.98 bitrate=N/A speed=7.93x    frame=28842 fps=190 q=-0.0 size=N/A time=00:20:02.95 bitrate=N/A speed=7.93x    frame=28941 fps=190 q=-0.0 size=N/A time=00:20:07.08 bitrate=N/A speed=7.93x    frame=29036 fps=190 q=-0.0 size=N/A time=00:20:11.04 bitrate=N/A speed=7.93x    frame=29135 fps=190 q=-0.0 size=N/A time=00:20:15.17 bitrate=N/A speed=7.93x    frame=29233 fps=190 q=-0.0 size=N/A time=00:20:19.25 bitrate=N/A speed=7.93x    frame=29334 fps=190 q=-0.0 size=N/A time=00:20:23.47 bitrate=N/A speed=7.93x    frame=29427 fps=190 q=-0.0 size=N/A time=00:20:27.35 bitrate=N/A speed=7.93x    frame=29534 fps=190 q=-0.0 size=N/A time=00:20:31.81 bitrate=N/A speed=7.93x    frame=29632 fps=190 q=-0.0 size=N/A time=00:20:35.90 bitrate=N/A speed=7.93x    frame=29735 fps=190 q=-0.0 size=N/A time=00:20:40.19 bitrate=N/A speed=7.93x    frame=29834 fps=190 q=-0.0 size=N/A time=00:20:44.32 bitrate=N/A speed=7.93x    frame=29929 fps=190 q=-0.0 size=N/A time=00:20:48.28 bitrate=N/A speed=7.93x    frame=30025 fps=190 q=-0.0 size=N/A time=00:20:52.29 bitrate=N/A speed=7.93x    frame=30122 fps=190 q=-0.0 size=N/A time=00:20:56.33 bitrate=N/A speed=7.93x    frame=30218 fps=190 q=-0.0 size=N/A time=00:21:00.34 bitrate=N/A speed=7.93x    frame=30312 fps=190 q=-0.0 size=N/A time=00:21:04.26 bitrate=N/A speed=7.93x    frame=30412 fps=190 q=-0.0 size=N/A time=00:21:08.43 bitrate=N/A speed=7.93x    frame=30510 fps=190 q=-0.0 size=N/A time=00:21:12.52 bitrate=N/A speed=7.93x    frame=30609 fps=190 q=-0.0 size=N/A time=00:21:16.65 bitrate=N/A speed=7.93x    frame=30709 fps=190 q=-0.0 size=N/A time=00:21:20.82 bitrate=N/A speed=7.93x    frame=30803 fps=190 q=-0.0 size=N/A time=00:21:24.74 bitrate=N/A speed=7.93x    frame=30903 fps=190 q=-0.0 size=N/A time=00:21:28.91 bitrate=N/A speed=7.93x    frame=31004 fps=190 q=-0.0 size=N/A time=00:21:33.12 bitrate=N/A speed=7.93x    frame=31101 fps=190 q=-0.0 size=N/A time=00:21:37.17 bitrate=N/A speed=7.93x    frame=31198 fps=190 q=-0.0 size=N/A time=00:21:41.21 bitrate=N/A speed=7.93x    frame=31290 fps=190 q=-0.0 size=N/A time=00:21:45.05 bitrate=N/A speed=7.93x    frame=31384 fps=190 q=-0.0 size=N/A time=00:21:48.97 bitrate=N/A speed=7.92x    frame=31474 fps=190 q=-0.0 size=N/A time=00:21:52.72 bitrate=N/A speed=7.92x    frame=31571 fps=190 q=-0.0 size=N/A time=00:21:56.77 bitrate=N/A speed=7.92x    frame=31661 fps=190 q=-0.0 size=N/A time=00:22:00.52 bitrate=N/A speed=7.92x    frame=31761 fps=190 q=-0.0 size=N/A time=00:22:04.69 bitrate=N/A speed=7.92x    frame=31857 fps=190 q=-0.0 size=N/A time=00:22:08.70 bitrate=N/A speed=7.92x    frame=31954 fps=190 q=-0.0 size=N/A time=00:22:12.74 bitrate=N/A speed=7.92x    frame=32046 fps=190 q=-0.0 size=N/A time=00:22:16.58 bitrate=N/A speed=7.92x    frame=32149 fps=190 q=-0.0 size=N/A time=00:22:20.88 bitrate=N/A speed=7.92x    frame=32233 fps=190 q=-0.0 size=N/A time=00:22:24.38 bitrate=N/A speed=7.92x    frame=32332 fps=190 q=-0.0 size=N/A time=00:22:28.51 bitrate=N/A speed=7.92x    frame=32436 fps=190 q=-0.0 size=N/A time=00:22:32.85 bitrate=N/A speed=7.92x    frame=32535 fps=190 q=-0.0 size=N/A time=00:22:36.98 bitrate=N/A speed=7.92x    frame=32639 fps=190 q=-0.0 size=N/A time=00:22:41.31 bitrate=N/A speed=7.92x    frame=32736 fps=190 q=-0.0 size=N/A time=00:22:45.36 bitrate=N/A speed=7.92x    frame=32830 fps=190 q=-0.0 size=N/A time=00:22:49.28 bitrate=N/A speed=7.92x    frame=32932 fps=190 q=-0.0 size=N/A time=00:22:53.53 bitrate=N/A speed=7.92x    frame=33030 fps=190 q=-0.0 size=N/A time=00:22:57.62 bitrate=N/A speed=7.92x    [Parsed_ssim_10 @ 000001702401cc00] SSIM Y:0.994889 (22.914700) U:0.994105 (22.294993) V:0.993838 (22.102880) All:0.994583 (22.662381)
[out#0/null @ 0000017020fc4ec0] video:14218KiB audio:258976KiB subtitle:0KiB other streams:0KiB global headers:0KiB muxing overhead: unknown
frame=33088 fps=190 q=-0.0 Lsize=N/A time=00:23:00.04 bitrate=N/A speed=7.92x    
